<svg width="1920" height="2733" viewBox="0 0 1920 2733" fill="none" xmlns="http://www.w3.org/2000/svg">
<path d="M959.352 2728.14L959.276 2728.63L959.293 2728.64L959.311 2728.64L959.352 2728.14ZM-546.798 161.938L-543.29 164.027L-541.202 160.519L-544.71 158.43L-546.798 161.938ZM2355.89 1064.3L2353.08 1061.34L2350.11 1064.15L2352.92 1067.11L2355.89 1064.3ZM959.429 2727.65C666.43 2682.27 478.128 2594.24 365.999 2476.73C253.887 2359.24 217.864 2212.22 229.57 2048.71C241.277 1885.18 300.721 1705.19 379.508 1521.82C458.295 1338.46 556.402 1151.78 645.415 974.861C734.421 797.956 814.339 630.801 856.707 486.544C899.068 342.31 903.939 220.807 842.626 135.333C781.31 49.8544 653.942 0.605014 432.346 0.500161C210.725 0.395295 -105.294 49.4447 -544.123 160.744L-543.877 161.713C-105.074 50.4206 210.849 1.39535 432.345 1.50016C653.866 1.60498 780.793 50.8496 841.814 135.916C902.839 220.988 898.093 342.081 855.747 486.262C813.409 630.42 733.532 797.498 644.522 974.412C555.52 1151.31 457.392 1338.03 378.59 1521.43C299.789 1704.82 240.292 1884.94 228.572 2048.64C216.852 2212.35 252.918 2359.68 365.276 2477.42C477.619 2595.15 666.17 2683.24 959.276 2728.63L959.429 2727.65ZM959.311 2728.64C1108.69 2740.88 1222.29 2723.51 1309.25 2683.78C1396.22 2644.04 1456.49 2581.94 1499.23 2504.8C1541.96 2427.67 1567.17 2335.51 1584 2235.61C1600.84 2135.71 1609.31 2028.04 1618.58 1919.91C1637.12 1703.6 1658.83 1485.48 1756.85 1323.58C1805.85 1242.65 1873.91 1175.78 1970.19 1130.22C2066.48 1084.65 2191.02 1060.39 2352.99 1064.73L2353.01 1063.73C2190.94 1059.38 2066.24 1083.66 1969.77 1129.31C1873.29 1174.97 1805.08 1241.98 1755.99 1323.07C1657.84 1485.19 1636.12 1703.57 1617.59 1919.82C1608.32 2027.97 1599.84 2135.59 1583.02 2235.44C1566.19 2335.29 1541.01 2427.33 1498.36 2504.32C1455.71 2581.3 1395.58 2643.23 1308.83 2682.87C1222.08 2722.51 1108.66 2739.87 959.393 2727.64L959.311 2728.64Z" fill="#FF3874"/>
</svg>
