<svg width="1920" height="2420" viewBox="0 0 1920 2420" fill="none" xmlns="http://www.w3.org/2000/svg">
<path d="M791.131 2415.71L791.049 2416.2L791.068 2416.21L791.088 2416.21L791.131 2415.71ZM-444.784 143.635L-441.238 145.657L-439.216 142.11L-442.762 140.088L-444.784 143.635ZM1937.16 942.502L1934.36 939.533L1931.39 942.335L1934.19 945.304L1937.16 942.502ZM791.214 2415.22C550.897 2375.04 396.466 2297.1 304.509 2193.08C212.561 2089.06 183.012 1958.9 192.614 1814.12C202.217 1669.32 250.975 1509.96 315.6 1347.6C380.224 1185.25 460.696 1019.96 533.71 863.304C606.717 706.666 672.272 558.658 707.025 430.925C741.772 303.215 745.772 195.621 695.47 119.925C645.153 44.2063 540.636 0.592993 358.852 0.500142C177.05 0.407282 -82.1774 43.8408 -442.132 142.39L-441.868 143.354C-81.9405 44.8127 177.185 1.40735 358.852 1.50014C540.537 1.59294 644.606 45.1898 694.637 120.478C744.683 195.789 740.794 302.999 706.06 430.662C671.332 558.302 605.815 706.236 532.804 862.882C459.8 1019.51 379.309 1184.85 314.671 1347.23C250.033 1509.62 201.229 1669.1 191.616 1814.05C182.002 1959.01 211.584 2089.47 303.76 2193.74C395.927 2298 550.611 2376 791.049 2416.2L791.214 2415.22ZM791.088 2416.21C913.628 2427.05 1006.84 2411.67 1078.19 2376.47C1149.54 2341.27 1199 2286.28 1234.06 2217.97C1269.11 2149.67 1289.78 2068.06 1303.59 1979.6C1317.4 1891.15 1324.36 1795.81 1331.96 1700.07C1347.17 1508.54 1364.97 1315.42 1445.37 1172.08C1485.55 1100.43 1541.37 1041.23 1620.33 1000.89C1699.29 960.559 1801.43 939.076 1934.26 942.919L1934.29 941.919C1801.34 938.073 1699.03 959.573 1619.88 1000C1540.72 1040.44 1484.76 1099.79 1444.49 1171.59C1363.98 1315.15 1346.16 1508.52 1330.96 1699.99C1323.36 1795.75 1316.41 1891.04 1302.6 1979.45C1288.8 2067.86 1268.15 2149.35 1233.17 2217.52C1198.19 2285.67 1148.88 2340.49 1077.74 2375.58C1006.61 2410.67 913.595 2426.04 791.176 2415.21L791.088 2416.21Z" fill="#FF3874"/>
</svg>
